<svg width="29" height="33" viewBox="0 0 29 33" fill="none" xmlns="http://www.w3.org/2000/svg">
<path fill-rule="evenodd" clip-rule="evenodd" d="M22 8C22 9.0961 21.7796 10.1407 21.3806 11.0919C19.3334 9.75748 16.99 9 14.5 9C11.698 9 9.08171 9.95918 6.86413 11.6203C6.31151 10.5332 6 9.303 6 8C6 3.58172 9.58172 0 14 0C18.4183 0 22 3.58172 22 8ZM0.851739 32.4236C0.300424 30.5736 0 28.5791 0 26.5C0 20.2167 2.74375 14.7068 6.86413 11.6203C8.18534 14.2193 10.8847 16 14 16C17.3222 16 20.1714 13.975 21.3806 11.0919C25.9176 14.0492 29 19.8402 29 26.5C29 28.5791 28.6996 30.5736 28.1483 32.4236C24.9408 29.1166 20.0187 27 14.5 27C8.98128 27 4.0592 29.1166 0.851739 32.4236Z" fill="white"/>
</svg>
