<svg width="97" height="91" viewBox="0 0 97 91" fill="none" xmlns="http://www.w3.org/2000/svg">
<path fill-rule="evenodd" clip-rule="evenodd" d="M31 37C31 38.0961 30.7796 39.1407 30.3806 40.0919C28.3334 38.7575 25.99 38 23.5 38C20.698 38 18.0817 38.9592 15.8641 40.6203C15.3115 39.5332 15 38.303 15 37C15 32.5817 18.5817 29 23 29C27.4183 29 31 32.5817 31 37ZM9.85174 61.4236C9.30042 59.5736 9 57.5791 9 55.5C9 49.2167 11.7438 43.7068 15.8641 40.6203C17.1853 43.2193 19.8847 45 23 45C26.3222 45 29.1714 42.975 30.3806 40.0919C34.9176 43.0492 38 48.8402 38 55.5C38 57.5791 37.6996 59.5736 37.1483 61.4236C33.9408 58.1166 29.0187 56 23.5 56C17.9813 56 13.0592 58.1166 9.85174 61.4236Z" fill="white"/>
<path fill-rule="evenodd" clip-rule="evenodd" d="M81 37C81 38.0961 80.7796 39.1407 80.3806 40.0919C78.3334 38.7575 75.99 38 73.5 38C70.698 38 68.0817 38.9592 65.8641 40.6203C65.3115 39.5332 65 38.303 65 37C65 32.5817 68.5817 29 73 29C77.4183 29 81 32.5817 81 37ZM59.8517 61.4236C59.3004 59.5736 59 57.5791 59 55.5C59 49.2167 61.7438 43.7068 65.8641 40.6203C67.1853 43.2193 69.8847 45 73 45C76.3222 45 79.1714 42.975 80.3806 40.0919C84.9176 43.0492 88 48.8402 88 55.5C88 57.5791 87.6996 59.5736 87.1483 61.4236C83.9408 58.1166 79.0187 56 73.5 56C67.9813 56 63.0592 58.1166 59.8517 61.4236Z" fill="white"/>
<path fill-rule="evenodd" clip-rule="evenodd" d="M70.3611 66C64.8679 72.1375 56.885 76 48 76C39.115 76 31.1321 72.1375 25.6389 66H26.8837C32.1853 71.5903 39.6853 75.0769 48 75.0769C56.3147 75.0769 63.8147 71.5903 69.1163 66H70.3611ZM70.3611 26C64.8679 19.8625 56.885 16 48 16C39.115 16 31.1321 19.8625 25.6389 26H26.8837C32.1853 20.4097 39.6853 16.9231 48 16.9231C56.3147 16.9231 63.8147 20.4097 69.1163 26H70.3611Z" fill="white"/>
<path d="M47.2559 46.5977C47.2637 46.1328 47.3164 45.7656 47.4141 45.4961C47.5117 45.2266 47.7109 44.9277 48.0117 44.5996L48.7793 43.8086C49.1074 43.4375 49.2715 43.0391 49.2715 42.6133C49.2715 42.2031 49.1641 41.8828 48.9492 41.6523C48.7344 41.418 48.4219 41.3008 48.0117 41.3008C47.6133 41.3008 47.293 41.4062 47.0508 41.6172C46.8086 41.8281 46.6875 42.1113 46.6875 42.4668H45.6035C45.6113 41.834 45.8359 41.3242 46.2773 40.9375C46.7227 40.5469 47.3008 40.3516 48.0117 40.3516C48.75 40.3516 49.3242 40.5508 49.7344 40.9492C50.1484 41.3438 50.3555 41.8867 50.3555 42.5781C50.3555 43.2617 50.0391 43.9355 49.4062 44.5996L48.7676 45.2324C48.4824 45.5488 48.3398 46.0039 48.3398 46.5977H47.2559ZM47.209 48.4551C47.209 48.2793 47.2617 48.1328 47.3672 48.0156C47.4766 47.8945 47.6367 47.834 47.8477 47.834C48.0586 47.834 48.2188 47.8945 48.3281 48.0156C48.4375 48.1328 48.4922 48.2793 48.4922 48.4551C48.4922 48.6309 48.4375 48.7773 48.3281 48.8945C48.2188 49.0078 48.0586 49.0645 47.8477 49.0645C47.6367 49.0645 47.4766 49.0078 47.3672 48.8945C47.2617 48.7773 47.209 48.6309 47.209 48.4551Z" fill="white"/>
</svg>
