<svg width="97" height="91" viewBox="0 0 97 91" fill="none" xmlns="http://www.w3.org/2000/svg">
<path fill-rule="evenodd" clip-rule="evenodd" d="M31 37C31 38.0961 30.7796 39.1407 30.3806 40.0919C28.3334 38.7575 25.99 38 23.5 38C20.698 38 18.0817 38.9592 15.8641 40.6203C15.3115 39.5332 15 38.303 15 37C15 32.5817 18.5817 29 23 29C27.4183 29 31 32.5817 31 37ZM9.85174 61.4236C9.30042 59.5736 9 57.5791 9 55.5C9 49.2167 11.7438 43.7068 15.8641 40.6203C17.1853 43.2193 19.8847 45 23 45C26.3222 45 29.1714 42.975 30.3806 40.0919C34.9176 43.0492 38 48.8402 38 55.5C38 57.5791 37.6996 59.5736 37.1483 61.4236C33.9408 58.1166 29.0187 56 23.5 56C17.9813 56 13.0592 58.1166 9.85174 61.4236Z" fill="white"/>
<path fill-rule="evenodd" clip-rule="evenodd" d="M81 37C81 38.0961 80.7796 39.1407 80.3806 40.0919C78.3334 38.7575 75.99 38 73.5 38C70.698 38 68.0817 38.9592 65.8641 40.6203C65.3115 39.5332 65 38.303 65 37C65 32.5817 68.5817 29 73 29C77.4183 29 81 32.5817 81 37ZM59.8517 61.4236C59.3004 59.5736 59 57.5791 59 55.5C59 49.2167 61.7438 43.7068 65.8641 40.6203C67.1853 43.2193 69.8847 45 73 45C76.3222 45 79.1714 42.975 80.3806 40.0919C84.9176 43.0492 88 48.8402 88 55.5C88 57.5791 87.6996 59.5736 87.1483 61.4236C83.9408 58.1166 79.0187 56 73.5 56C67.9813 56 63.0592 58.1166 59.8517 61.4236Z" fill="white"/>
<path fill-rule="evenodd" clip-rule="evenodd" d="M70.3611 66C64.8679 72.1375 56.885 76 48 76C39.115 76 31.1321 72.1375 25.6389 66H26.8837C32.1853 71.5903 39.6853 75.0769 48 75.0769C56.3147 75.0769 63.8147 71.5903 69.1163 66H70.3611ZM70.3611 26C64.8679 19.8625 56.885 16 48 16C39.115 16 31.1321 19.8625 25.6389 26H26.8837C32.1853 20.4097 39.6853 16.9231 48 16.9231C56.3147 16.9231 63.8147 20.4097 69.1163 26H70.3611Z" fill="white"/>
<path d="M46.1396 39.9941C46.1592 38.832 46.291 37.9141 46.5352 37.2402C46.7793 36.5664 47.2773 35.8193 48.0293 34.999L49.9482 33.0215C50.7686 32.0938 51.1787 31.0977 51.1787 30.0332C51.1787 29.0078 50.9102 28.207 50.373 27.6309C49.8359 27.0449 49.0547 26.752 48.0293 26.752C47.0332 26.752 46.2324 27.0156 45.627 27.543C45.0215 28.0703 44.7188 28.7783 44.7188 29.667H42.0088C42.0283 28.085 42.5898 26.8105 43.6934 25.8438C44.8066 24.8672 46.252 24.3789 48.0293 24.3789C49.875 24.3789 51.3105 24.877 52.3359 25.873C53.3711 26.8594 53.8887 28.2168 53.8887 29.9453C53.8887 31.6543 53.0977 33.3389 51.5156 34.999L49.9189 36.5811C49.2061 37.3721 48.8496 38.5098 48.8496 39.9941H46.1396ZM46.0225 44.6377C46.0225 44.1982 46.1543 43.832 46.418 43.5391C46.6914 43.2363 47.0918 43.085 47.6191 43.085C48.1465 43.085 48.5469 43.2363 48.8203 43.5391C49.0938 43.832 49.2305 44.1982 49.2305 44.6377C49.2305 45.0771 49.0938 45.4434 48.8203 45.7363C48.5469 46.0195 48.1465 46.1611 47.6191 46.1611C47.0918 46.1611 46.6914 46.0195 46.418 45.7363C46.1543 45.4434 46.0225 45.0771 46.0225 44.6377Z" fill="white"/>
</svg>
